<?xml version="1.0" encoding="UTF-8"?>
<svg xmlns="http://www.w3.org/2000/svg" xmlns:xlink="http://www.w3.org/1999/xlink" width="106pt" height="108pt" viewBox="0 0 106 108" version="1.1">
<g id="surface1">
<path style=" stroke:none;fill-rule:evenodd;fill:rgb(0%,53.69873%,76.899719%);fill-opacity:1;" d="M 0.433594 0.925781 L 105.109375 0.925781 L 105.109375 107.40625 L 0.433594 107.40625 L 0.433594 0.925781 "/>
<path style=" stroke:none;fill-rule:evenodd;fill:rgb(41.598511%,71.798706%,31.799316%);fill-opacity:1;" d="M 53.6875 12.210938 C 69.738281 12.210938 82.753906 25.226563 82.753906 41.277344 C 82.753906 57.328125 69.738281 70.34375 53.6875 70.34375 C 37.636719 70.34375 24.617188 57.328125 24.617188 41.277344 C 24.617188 25.226563 37.636719 12.210938 53.6875 12.210938 "/>
<path style=" stroke:none;fill-rule:evenodd;fill:rgb(100%,100%,100%);fill-opacity:1;" d="M 73.335938 50.871094 C 64.140625 40.683594 58.777344 30.328125 57.753906 19.453125 C 56.746094 19.453125 55.742188 19.453125 54.738281 19.453125 C 54.738281 33.496094 62.238281 42.589844 73.335938 50.871094 "/>
<path style=" stroke:none;fill-rule:evenodd;fill:rgb(100%,100%,100%);fill-opacity:1;" d="M 50.265625 19.59375 C 46.289063 32.734375 40.191406 42.675781 31.414063 49.167969 C 31.933594 50.027344 32.453125 50.890625 32.972656 51.753906 C 44.996094 44.496094 48.90625 33.378906 50.265625 19.59375 "/>
<path style=" stroke:none;fill-rule:evenodd;fill:rgb(100%,100%,100%);fill-opacity:1;" d="M 35.699219 54.90625 C 49.015625 51.570313 60.679688 51.703125 70.757813 55.90625 C 71.230469 55.019531 71.703125 54.132813 72.175781 53.242188 C 59.777344 46.648438 48.222656 49 35.699219 54.90625 "/>
<path style=" stroke:none;fill-rule:nonzero;fill:rgb(100%,100%,100%);fill-opacity:1;" d="M 23.773438 97.113281 L 22.519531 94.640625 L 12.855469 94.640625 L 11.605469 97.113281 L 6.519531 97.113281 L 14.269531 82.503906 L 21.183594 82.503906 L 28.828125 97.113281 Z M 20.960938 91.4375 L 18.144531 85.90625 L 17.257813 85.90625 L 14.4375 91.4375 L 20.960938 91.4375 "/>
<path style=" stroke:none;fill-rule:nonzero;fill:rgb(100%,100%,100%);fill-opacity:1;" d="M 29.484375 82.503906 L 34.164063 82.503906 L 34.164063 93.386719 L 44.554688 93.386719 L 44.554688 97.113281 L 29.484375 97.113281 L 29.484375 82.503906 "/>
<path style=" stroke:none;fill-rule:nonzero;fill:rgb(100%,100%,100%);fill-opacity:1;" d="M 45.570313 97.113281 L 45.570313 82.503906 L 55.582031 82.503906 C 57.605469 82.503906 58.886719 82.542969 59.410156 82.617188 C 60.863281 82.8125 61.839844 83.277344 62.351563 84.011719 C 62.859375 84.746094 63.117188 86.066406 63.117188 87.972656 C 63.117188 89.777344 62.90625 91.039063 62.484375 91.773438 C 62.207031 92.261719 61.8125 92.632813 61.300781 92.890625 C 60.792969 93.140625 60.085938 93.320313 59.175781 93.429688 C 58.886719 93.460938 58.425781 93.480469 57.796875 93.503906 C 57.167969 93.523438 56.445313 93.535156 55.621094 93.535156 L 50.027344 93.535156 L 50.027344 97.113281 Z M 50.027344 89.886719 L 56.78125 89.886719 C 57.113281 89.886719 57.335938 89.871094 57.441406 89.84375 C 57.679688 89.820313 57.878906 89.765625 58.050781 89.671875 C 58.269531 89.558594 58.425781 89.375 58.523438 89.125 C 58.609375 88.878906 58.652344 88.492188 58.652344 87.972656 C 58.652344 87.464844 58.601563 87.085938 58.492188 86.84375 C 58.386719 86.597656 58.195313 86.414063 57.925781 86.300781 C 57.8125 86.257813 57.566406 86.226563 57.191406 86.195313 C 56.816406 86.167969 56.285156 86.152344 55.589844 86.152344 L 50.027344 86.152344 L 50.027344 89.886719 "/>
<path style=" stroke:none;fill-rule:nonzero;fill:rgb(100%,100%,100%);fill-opacity:1;" d="M 64.582031 82.503906 L 80.765625 82.503906 L 80.765625 85.9375 L 68.96875 85.9375 L 68.96875 88.046875 L 80.167969 88.046875 L 80.167969 91.261719 L 68.96875 91.261719 L 68.96875 93.601563 L 80.851563 93.601563 L 80.851563 97.113281 L 64.582031 97.113281 L 64.582031 82.503906 "/>
<path style=" stroke:none;fill-rule:nonzero;fill:rgb(100%,100%,100%);fill-opacity:1;" d="M 81.214844 82.503906 L 98.898438 82.503906 L 98.898438 86.230469 L 92.402344 86.230469 L 92.402344 97.113281 L 87.722656 97.113281 L 87.722656 86.230469 L 81.214844 86.230469 L 81.214844 82.503906 "/>
</g>
</svg>
