<?xml version="1.0" encoding="utf-8"?>
<!-- Generator: Adobe Illustrator 26.0.3, SVG Export Plug-In . SVG Version: 6.00 Build 0)  -->
<svg version="1.0" id="katman_1" xmlns="http://www.w3.org/2000/svg" xmlns:xlink="http://www.w3.org/1999/xlink" x="0px" y="0px"
	 viewBox="0 0 600 450" style="enable-background:new 0 0 600 450;" xml:space="preserve">
<style type="text/css">
	.st0{fill:#233773;}
	.st1{fill:#FFFFFF;}
	.st2{fill:#E30A18;}
	.st3{fill:#9C9B9B;}
</style>
<rect x="-19" y="-4.6" class="st0" width="638.2" height="460"/>
<g>
	<g>
		<g>
			<g>
				<path class="st1" d="M223.5,173.2c0-42.4,34.4-76.8,76.8-76.8s76.8,34.4,76.8,76.8c0,42.4-34.4,76.8-76.8,76.8
					S223.5,215.6,223.5,173.2z"/>
				<path class="st2" d="M283.1,226.4c5.1,1.5,10.4,2.3,16,2.3c30.6,0,55.5-24.8,55.5-55.5c0-30.6-24.8-55.5-55.5-55.5
					c-5.6,0-10.9,0.8-16,2.3c0.5,0,1,0,1.5,0c29.4,0,53.2,23.8,53.2,53.2s-23.8,53.2-53.2,53.2C284.1,226.4,283.6,226.4,283.1,226.4
					z"/>
				<path class="st2" d="M327.3,180.5c1.1-3.8,1.8-7.8,1.8-12c0-23-18.6-41.6-41.6-41.6c-23,0-41.6,18.6-41.6,41.6
					c0,4.2,0.6,8.2,1.8,12c0-0.4,0-0.7,0-1.1c0-22,17.8-39.8,39.8-39.8s39.8,17.8,39.8,39.8C327.3,179.8,327.3,180.1,327.3,180.5z"
					/>
				<path class="st3" d="M295.8,211.8c-3,0.9-6.2,1.4-9.5,1.4c-18.2,0-33-14.8-33-33c0-18.2,14.8-33,33-33c3.3,0,6.5,0.5,9.5,1.4
					c-0.3,0-0.6,0-0.9,0c-17.5,0-31.7,14.2-31.7,31.7c0,17.5,14.2,31.6,31.7,31.6C295.2,211.8,295.5,211.8,295.8,211.8z"/>
				<path class="st3" d="M290.9,192.2c1.8,0.5,3.7,0.8,5.6,0.8c10.8,0,19.5-8.7,19.5-19.5c0-10.8-8.7-19.5-19.5-19.5
					c-2,0-3.8,0.3-5.6,0.8c0.2,0,0.4,0,0.5,0c10.3,0,18.7,8.4,18.7,18.7c0,10.3-8.4,18.7-18.7,18.7
					C291.2,192.2,291.1,192.2,290.9,192.2z"/>
				<path class="st3" d="M271,173.7c-0.7,2.4-1.1,4.9-1.1,7.5c0,14.3,11.6,25.9,25.9,25.9s25.9-11.6,25.9-25.9
					c0-2.6-0.4-5.1-1.1-7.5c0,0.2,0,0.5,0,0.7c0,13.7-11.1,24.9-24.9,24.9S271,188.1,271,174.4C271,174.2,271,173.9,271,173.7z"/>
			</g>
		</g>
	</g>
	<g>
		<path class="st1" d="M461.5,304.6c0,19.4-13.3,33.9-31.3,33.9c-17.3,0-31.1-14.4-31.1-33.1c0-19,14.2-32.5,31.4-32.5
			c12.7,0,25.7,8.9,29.3,22.4H443c-2.7-5.2-7.4-8.2-12.9-8.2c-9.6,0-16,8.4-16,18.4c0,10.3,6.1,19,16.1,19c6.4,0,12.2-3.2,14-10.2
			h-17.5v-12.9h34.8C461.5,302.4,461.5,303.5,461.5,304.6z M321.4,284.6h14.5c0.2,0,0.3-0.1,0.3-0.3l1.1-10.5h-14.5
			c-0.2,0-0.3,0.1-0.3,0.3L321.4,284.6z M41,336l32.5-61.9c0.1-0.2,0.3-0.3,0.5-0.3h12.4c0.3,0,0.5,0.2,0.6,0.4l19,62.7
			c0,0.1-0.1,0.2-0.2,0.2H88.3c-0.3,0-0.5-0.2-0.6-0.5l-2-8.3c-0.1-0.3-0.3-0.5-0.6-0.5h-22c-0.2,0-0.4,0.1-0.5,0.3l-4.1,8.5
			c-0.1,0.2-0.3,0.3-0.5,0.3H41.7 M82.6,315.2l-4.5-21.7l-9.3,21.7H82.6z M124.9,317.2l-6.8-26.7c-0.1-0.5-0.6-0.9-1.2-0.9h-14.8
			l13.3,44.9c0,0.2,0,0.3,0,0.5l-9.7,18H121c0.2,0,0.4-0.1,0.5-0.3l31.4-63.1h-15.2c-0.2,0-0.4,0.1-0.5,0.4L124.9,317.2z
			 M181.5,289.6h-7.7c-0.1,0-0.2-0.1-0.2-0.2l1.7-15.5c0-0.1-0.1-0.2-0.2-0.2h-14c-0.3,0-0.6,0.2-0.6,0.5l-1.7,15.3H156l-1.3,10.6
			c0,0.1,0.1,0.2,0.2,0.2h2.6c0.1,0,0.2,0.1,0.2,0.2l-3.9,36.4c0,0.1,0.1,0.2,0.2,0.2h14c0.3,0,0.6-0.2,0.6-0.5l3.9-35.7
			c0-0.3,0.3-0.5,0.6-0.5h7c0.3,0,0.6-0.2,0.6-0.5l1.1-10.1C181.7,289.7,181.6,289.6,181.5,289.6z M231.7,314
			c-0.1,1.2-0.3,2.4-0.7,3.6c0,0.1-0.1,0.1-0.2,0.1h-36.6c-0.1,0-0.2,0.1-0.2,0.2c0.4,5.5,4.8,8.8,10.6,8.8c4,0,6.7-1.5,9.4-4.4
			c0,0,0.1-0.1,0.1-0.1l14.7,0c0.1,0,0.2,0.2,0.2,0.3c-5.3,9.4-14.7,16.2-25.7,16.2c-14.4,0-24.9-11.3-23.4-25.2
			c1.5-13.8,14.1-25.5,28.6-25.5C223.6,288,233.2,299.7,231.7,314z M217.4,308.1c0.1,0,0.2-0.1,0.2-0.2c-0.7-5-5-7.9-10.3-7.9
			c-5.2,0-10.2,2.9-12,7.9c0,0.1,0,0.2,0.2,0.2H217.4z M296.6,288c-6.7,0-12.4,3.1-16.5,8.5c-2.4-5.4-6.9-8.5-13.3-8.5
			c-5.6,0-11.1,1.8-14.5,6.7l0.5-4.9c0-0.1-0.1-0.2-0.2-0.2h-13.6l-5.2,47.5h14.4c0.2,0,0.4-0.2,0.4-0.4l2.7-24.9
			c0.6-5.6,2.7-10.5,9.5-10.5c6.2,0,6.8,5.1,6.3,9.9l-2.8,25.9h14.4c0.2,0,0.4-0.2,0.4-0.4l2.8-25.6c0.6-5.4,2.7-9.9,9.2-9.9
			c6.8,0,7,5.3,6.4,10.5l-2.7,25.3h14.4c0.2,0,0.4-0.2,0.4-0.4l2.8-25.6c0.8-7.3,1.7-12.9-3.3-18.4C305.9,289.4,301.5,288,296.6,288
			z M315.6,337.2h14.5c0.2,0,0.3-0.1,0.3-0.3l5.1-47.3h-14.5c-0.2,0-0.3,0.1-0.3,0.3L315.6,337.2z M377.8,289.6h-36.4
			c-0.2,0-0.3,0.1-0.3,0.3l-1.1,10.5h20.8l-23.6,26.8c-0.1,0.1-0.1,0.2-0.1,0.3l-1,9.6h36.4c0.2,0,0.3-0.1,0.3-0.3l1.1-10.5h-19.3
			l22-25.9c0,0,0.1-0.1,0.1-0.2L377.8,289.6z M511.8,336.2l8.4-45.4c0.1-0.6-0.4-1.1-1.1-1.1h-11.8c-0.5,0-1,0.3-1.1,0.8l-0.8,4.2
			h-0.2c-1.9-5-7.7-6.7-12.5-6.7c-16.2,0-28.8,14.9-28.8,30.8c0,12,7.5,19.8,19.5,19.8c5.5,0,11.7-2,15-6.7h0.2l-0.7,4
			c-0.1,0.6,0.4,1.1,1.1,1.1h11.8C511.3,337,511.7,336.7,511.8,336.2z M502.2,311c0,7.7-6.5,14.4-14.2,14.4c-5.9,0-9.6-4-9.6-10
			c0-7.4,6.7-14.2,14-14.2C498.2,301.3,502.2,304.9,502.2,311z M525.6,289.6c-0.5,0-0.8,0.3-0.9,0.8l-1.5,9.3c0,0.4,0.2,0.7,0.6,0.7
			h18.7L519,327.1c-0.2,0.2-0.3,0.4-0.3,0.7l-1.4,8.7c0,0.4,0.2,0.7,0.6,0.7h36.2c0.2,0,0.3-0.1,0.3-0.3l1.1-10.5h-19.3l22-25.9
			c0,0,0.1-0.1,0.1-0.2l1.2-10.7H525.6z"/>
	</g>
</g>
</svg>
