<?xml version="1.0" encoding="utf-8"?>
<!-- Generator: Adobe Illustrator 26.0.3, SVG Export Plug-In . SVG Version: 6.00 Build 0)  -->
<svg version="1.0" id="katman_1" xmlns="http://www.w3.org/2000/svg" xmlns:xlink="http://www.w3.org/1999/xlink" x="0px" y="0px"
	 viewBox="0 0 600 450" style="enable-background:new 0 0 600 450;" xml:space="preserve">
<style type="text/css">
	.st0{fill:#5DB133;}
	.st1{fill:#1D3D90;}
</style>
<path class="st0" d="M129.8,175c0,0,45,48.1,1,75.8c0,0,7.7-24.8-6.4-55.4C124.4,195.5,117.2,182.8,129.8,175z"/>
<path class="st1" d="M130.9,229.5c0,0-24.2,21-42.9,0.4c0,0-3.4,25.8,23.3,26.7c6.1,0.4,12.2-1.2,17.3-4.5
	C128.7,252.1,131.9,238.6,130.9,229.5z"/>
<path class="st1" d="M88.3,227.2c0,0,0.7-19.2,31.7-36.2c0,0,6.5,10.1-0.4,17.1c-7,7.1-16.3,16.8-18,28.3
	C101.6,236.4,93.9,234.9,88.3,227.2z"/>
<path class="st1" d="M228.6,249.4l10-39.7c0.3-1.1,0.9-2,1.7-2.7s1.9-1,3-1h10.4l-9.6,38.8c-0.3,1.3-1.1,2.5-2.1,3.3
	c-1.1,0.8-2.4,1.3-3.8,1.3H228.6z M247.1,192.1h10.7l-1.6,6c-0.3,1.2-1,2.2-2,3c-1,0.8-2.2,1.2-3.5,1.2H241l1.8-6.9
	c0.2-0.9,0.8-1.8,1.6-2.4C245.2,192.5,246.1,192.1,247.1,192.1L247.1,192.1z"/>
<path class="st1" d="M289.9,249.2c-4.2-0.2-7.3-1.2-9.5-2.8c-2.2-1.7-3.9-3.9-4.9-6.4c-2.4-5.9-1.9-12.5,1.6-20
	c4.6-8.5,12.1-13.1,22.5-13.7h25L314,249.4L289.9,249.2z M306.6,222.7L306.6,222.7l1-4.5h-6.7c-3.6,0.1-6.5,1-8.7,2.8
	c-2,1.5-3.5,3.7-4.2,6.1c-2,6.6,0,9.9,6,10h9.1L306.6,222.7z"/>
<path class="st1" d="M361.6,249.4h-14.1l7.3-28.5c0.1-0.7-0.1-1.4-0.5-1.9c-0.2-0.3-0.5-0.5-0.8-0.7c-0.3-0.1-0.7-0.2-1-0.2h-10.5
	l-7.8,31.3h-14.2l10.7-43.1h17.3v0h9.7c1.8-0.1,3.5,0.3,5.1,1.1c1.6,0.8,3,1.9,4,3.3c2.3,2.9,3,6.3,2.1,10.2L361.6,249.4z"/>
<path class="st1" d="M435.7,249.2c-4.2-0.2-7.3-1.2-9.5-2.8c-2.2-1.7-3.9-3.9-4.9-6.4c-2.4-5.9-1.9-12.5,1.5-20
	c4.6-8.5,12.1-13.1,22.5-13.7h25l-10.6,43.1L435.7,249.2z M452.4,222.7L452.4,222.7l1-4.5h-6.7c-3.6,0.1-6.5,1-8.7,2.8
	c-2,1.5-3.5,3.7-4.2,6.1c-2,6.6,0,9.9,6,10h9.1L452.4,222.7z"/>
<path class="st1" d="M467.8,241.1l24.1-24.6h-18l2.5-10.2h37.2l-2.4,9.8l-23.7,23.1h20.1l-1.3,5.1c-0.4,1.5-1.2,2.8-2.4,3.7
	c-1.2,0.9-2.7,1.5-4.3,1.5h-33.9L467.8,241.1z"/>
<path class="st1" d="M250.2,249.4l13.8-53.6c0.3-1.1,0.9-2,1.7-2.7c0.9-0.7,1.9-1,3-1h10.4l-13.5,52.7c-0.3,1.3-1.1,2.5-2.1,3.3
	c-1.1,0.8-2.4,1.3-3.8,1.3H250.2z"/>
<path class="st1" d="M366.1,265.9c0.1-0.6,0.5-1.1,0.9-1.5c0.5-0.4,1.1-0.6,1.7-0.6c0,0,14.8,0.3,19.8,0c5.6-0.3,7.5-12.7,7.8-13.4
	l0.3-1.2l-9.6-0.1c-4.2-0.3-7.3-1.2-9.5-2.8c-2.2-1.7-3.9-3.9-4.9-6.4c-2.4-5.9-1.9-12.5,1.6-20c4.6-8.5,12.1-13.1,22.5-13.7h24.2
	l-1.6,6.7c-0.4,1.4-1.2,2.7-2.4,3.7c-1.2,0.9-2.7,1.4-4.2,1.4h-15c-3.5,0.1-6.2,1.1-8.4,2.8c-2,1.5-3.5,3.7-4.2,6.1
	c-2,6.6,0,9.9,6,10h8.5l2.4-9.5c0.4-1.7,1.4-3.2,2.8-4.2c1.4-1.1,3.1-1.6,4.8-1.6h7.6l-5,20.4l-2.2,8.5c-1,3.9-4.8,17.8-8.9,21.1
	c-3.6,2.9-6.3,3.9-12.9,4.2h-24.2L366.1,265.9z"/>
<path class="st1" d="M218,249.4h-11.4l1.9-7.2c0.9-3.3,1.8-6.9,2.7-10.6c1-3.7,2.1-8.3,3.5-13.8c-2.4,3.5-13.6,20.2-17.7,24.8
	c-0.9,1-2.1,1.6-3.5,1.8c-1.3,0.1-2.7-0.2-3.7-1.1l0,0c-1.6-1.3-3-6.9-3-6.9s-3.5-15.6-4.3-19.7l-1.9,7.4c-0.9,3.5-1.8,7.1-2.7,11
	c-0.8,3.3-1.8,7.3-3,11.9c-0.2,0.7-0.6,1.3-1.1,1.7c-0.6,0.4-1.3,0.7-2,0.7h-11.4c0.3-1.1,1.1-4.3,2.4-9.5c1.3-5.2,2.7-11,4.3-17.3
	l5.9-24c1.6-4.3,4.5-6.5,8.6-6.5h8.2c0.1,0.6,0.5,2.5,1.1,5.7c0.6,3.2,1.3,6.8,2.1,10.7c0.8,4,2.2,9.7,3.4,15.8l20.7-29.7
	c0.5-0.8,1.2-1.4,2.1-1.8c0.8-0.4,1.8-0.7,2.7-0.7h12.8c-0.3,1.2-1.2,4.7-2.6,10.6c-1.4,5.8-3,12.3-4.8,19.5
	c-1.6,6.7-3.7,14.9-6.1,24.8c-0.2,0.7-0.6,1.3-1.1,1.7C219.4,249.2,218.7,249.4,218,249.4L218,249.4z"/>
</svg>
