<?xml version="1.0" encoding="utf-8"?>
<!-- Generator: Adobe Illustrator 25.0.1, SVG Export Plug-In . SVG Version: 6.00 Build 0)  -->
<svg version="1.0" id="Layer_1" xmlns="http://www.w3.org/2000/svg" xmlns:xlink="http://www.w3.org/1999/xlink" x="0px" y="0px"
	 viewBox="0 0 241 171" style="enable-background:new 0 0 241 171;" xml:space="preserve">
<style type="text/css">
	.st0{fill:#032B56;}
	.st1{fill:url(#path-1-2_1_);}
	.st2{fill:url(#Path-5_1_);}
	.st3{fill:none;}
</style>
<g id="Symbols">
	<g id="Group">
		<path id="Shape" class="st0" d="M69.5,91.1c0-6.4,4.2-10.6,10.7-10.6S91,84.8,91,91.1s-4.3,10.6-10.7,10.6S69.5,97.5,69.5,91.1z
			 M83.8,91.1c0-2.7-1.4-4.5-3.6-4.5s-3.5,1.8-3.5,4.5s1.4,4.5,3.5,4.5S83.8,93.8,83.8,91.1L83.8,91.1z"/>
		<polygon id="Path" class="st0" points="108.8,86.8 103.8,86.8 103.8,101.2 96.7,101.2 96.7,86.8 91.5,86.8 91.5,81.1 108.8,81.1 
					"/>
		<path id="Shape-2" class="st0" d="M109.4,91.1c0-6.4,4.2-10.6,10.7-10.6s10.7,4.2,10.7,10.6s-4.3,10.6-10.7,10.6
			S109.4,97.5,109.4,91.1z M123.7,91.1c0-2.7-1.4-4.5-3.6-4.5s-3.5,1.8-3.5,4.5s1.4,4.5,3.5,4.5S123.7,93.8,123.7,91.1z"/>
		<path id="Shape-3" class="st0" d="M143.7,101.2l-2.9-5.3h-1.1v5.3h-7.1V81.1h8.9c5.6,0,8.8,2.7,8.8,7.4c0.1,2.2-0.8,4.2-2.5,5.6
			l4.2,7.1H143.7z M139.7,90.3h1.4c1.2,0,2-0.7,2-1.8s-0.8-1.8-2.1-1.8h-1.3L139.7,90.3L139.7,90.3z"/>
		<path id="Shape-4" class="st0" d="M159.5,91.1c0-6.4,4.3-10.6,10.8-10.6S181,84.8,181,91.1s-4.3,10.6-10.7,10.6
			S159.5,97.5,159.5,91.1z M173.8,91.1c0-2.7-1.4-4.5-3.6-4.5s-3.5,1.8-3.5,4.5s1.4,4.5,3.5,4.5S173.8,93.8,173.8,91.1L173.8,91.1z"
			/>
		<polygon id="Path-2" class="st0" points="182.7,81.1 189.8,81.1 189.8,101.2 182.7,101.2 		"/>
		<polygon id="Path-3" class="st0" points="207.7,95.4 207.7,101.2 192.5,101.2 192.5,81.1 199.6,81.1 199.6,95.4 		"/>
	</g>
	<g id="Group-2">
		<g id="Rectangle">
			<g id="Mask-2-2">
				<radialGradient id="path-1-2_1_" cx="53.0452" cy="85.4551" r="23.4608" gradientUnits="userSpaceOnUse">
					<stop  offset="0" style="stop-color:#EC5F65"/>
					<stop  offset="9.000000e-02" style="stop-color:#EB5C62"/>
					<stop  offset="0.18" style="stop-color:#EA5559"/>
					<stop  offset="0.28" style="stop-color:#E9474B"/>
					<stop  offset="0.38" style="stop-color:#E73537"/>
					<stop  offset="0.47" style="stop-color:#E41821"/>
					<stop  offset="0.5" style="stop-color:#E3051B"/>
					<stop  offset="0.8" style="stop-color:#BD1821"/>
					<stop  offset="0.85" style="stop-color:#B31B28"/>
					<stop  offset="0.96" style="stop-color:#972138"/>
					<stop  offset="1" style="stop-color:#8A233F"/>
				</radialGradient>
				<path id="path-1-2" class="st1" d="M53,58.5c5.9,13.9,19.5,21.1,19.3,35c-0.2,10.7-9.1,19.1-19.8,18.9
					c-10.3-0.2-18.7-8.6-18.9-18.9C33.6,79.6,47.2,72.4,53,58.5"/>
			</g>
		</g>
		<polygon id="Path-4" class="st0" points="43,81.5 50.2,81.5 52.8,91.7 52.9,91.7 55.5,81.5 62.6,81.5 68,101.4 60.3,101.4 
			58.2,92.7 58.1,92.7 55.9,101.4 49.7,101.4 47.6,92.8 47.5,92.8 45.3,101.4 37.6,101.4 		"/>
		
			<radialGradient id="Path-5_1_" cx="-270.1007" cy="192.7966" r="0.22" gradientTransform="matrix(18.61 -8.29 24.45 54.9 375.6398 -12741.4707)" gradientUnits="userSpaceOnUse">
			<stop  offset="0" style="stop-color:#FFFFFF;stop-opacity:0.95"/>
			<stop  offset="1" style="stop-color:#FFFFFF;stop-opacity:0"/>
		</radialGradient>
		<path id="Path-5" class="st2" d="M70.1,78.8c4,9.8,4.1,19.1,0.1,20.7s-10.4-5.1-14.4-15s-4.1-19.1-0.1-20.7S66,68.9,70.1,78.8z"/>
	</g>
</g>
<rect x="25" y="53" class="st3" width="191" height="65"/>
</svg>
