<?xml version="1.0" encoding="utf-8"?>
<!-- Generator: Adobe Illustrator 25.0.0, SVG Export Plug-In . SVG Version: 6.00 Build 0)  -->
<svg version="1.1" id="Layer_1" xmlns="http://www.w3.org/2000/svg" xmlns:xlink="http://www.w3.org/1999/xlink" x="0px" y="0px"
	 viewBox="0 0 467.5 338.9" style="enable-background:new 0 0 467.5 338.9;" xml:space="preserve">
<style type="text/css">
	.st0{fill:#ED1C24;}
</style>
<path class="st0" d="M70.7,168.3c-1.5-2.4-4.2-3.7-7-3.5h-6.1c-2.6,0.1-5-1.2-6.1-3.5l-4.1-7.1h25.9c0,0,1.6-5.3,5.8-5.3H92
	c2.7,0,5-2.2,5.1-4.9v-10l33.2,57.6c4.7,8.2,13.5,13.3,23,13.3H89.6v-11.8c0-7.8-6.4-14.2-14.2-14.2l0,0h-9.7
	c-2.6,0.1-4.9-1.3-6.1-3.5l-2-3.5h15.1L70.7,168.3z"/>
<path class="st0" d="M49.6,167.7c15.4-2.8,18.5,2,18.5,2c-8-3.1-11,1.5-18.4,3.2c-6,1.4-10.2-4-9.7-8.7
	C41.8,166.8,46.5,168.3,49.6,167.7z"/>
<path class="st0" d="M175.8,148.9h-12.9c-0.9,0-1.6,0.7-1.6,1.6l0,0v39.8h7.2c0.4,0,0.8-0.3,0.8-0.8v-10.6h6.3c8.3,0,15-6.7,15-15
	S184.1,149,175.8,148.9z M175.2,171.5h-5.9v-15.2h5.9c4.2,0,7.6,3.4,7.6,7.6C182.8,168.1,179.4,171.5,175.2,171.5L175.2,171.5z"/>
<path class="st0" d="M292.3,156.4v33.9h7c0.4,0,0.8-0.3,0.8-0.8v-40.6l0,0l-5.2,3C293.2,152.8,292.2,154.6,292.3,156.4z"/>
<path class="st0" d="M257.4,162c-3.8,0-6.4,1.7-7.8,4.6V162h-6.9c-0.4,0-0.8,0.3-0.8,0.8v27.6h7c0.4,0,0.8-0.3,0.8-0.8v-12.6
	c0-5.3,0.7-7.4,4.9-7.4l0,0c1.8,0.1,3.5-0.9,4.4-2.5l2.9-5L257.4,162L257.4,162z"/>
<path class="st0" d="M231.6,151.9l-5.2,3c-1.7,0.9-2.7,2.6-2.6,4.5V178c0,9.2,2.9,12.3,12,12.3h1.1v-6.1c0-0.6-0.5-1.1-1.1-1.1
	c-3.8-0.1-4.2-1-4.2-5.1v-9h1.3c1.7,0.1,3.2-0.8,4-2.3l2.7-4.6h-8L231.6,151.9L231.6,151.9z"/>
<path class="st0" d="M274.2,161.4c-8.1,0-14.7,6.6-14.7,14.7s6.6,14.7,14.7,14.7c8.1,0,14.7-6.6,14.7-14.7S282.3,161.4,274.2,161.4
	C274.2,161.4,274.2,161.4,274.2,161.4z M274.2,183.6c-4.1,0-7.4-3.3-7.4-7.4s3.3-7.4,7.4-7.4c4.1,0,7.4,3.3,7.4,7.4c0,0,0,0,0,0
	C281.5,180.2,278.2,183.5,274.2,183.6L274.2,183.6z"/>
<path class="st0" d="M405.7,172.6c-4.3-0.9-5.9-1.3-5.9-2.6s1.1-2.3,3.7-2.3c1.4,0,2.8,0.4,4,1.3c1.1,0.9,2.7,1.2,4,0.6l4.1-1.7
	c-2-4-5.7-6.6-12-6.6c-7-0.1-11.6,4.1-11.6,8.9c0,6.1,5.1,7.8,10.2,8.7c3.3,0.6,6.1,1.1,6.1,2.6c0,1.4-1.4,2.6-3.9,2.6
	c-1.7,0.1-3.4-0.6-4.6-1.8c-1.1-1.1-2.8-1.5-4.2-0.9l-4.5,1.8c2,5,6.2,7.6,13,7.6c8.2,0.1,12-5.3,12-9.5
	C416,175.3,410.5,173.6,405.7,172.6z"/>
<path class="st0" d="M380.2,163.5v26.8h7c0.4,0,0.8-0.3,0.8-0.8V162h-6.2C380.9,162,380.2,162.7,380.2,163.5z"/>
<circle class="st0" cx="384.1" cy="153.1" r="4.2"/>
<circle class="st0" cx="423.3" cy="153.1" r="4.2"/>
<path class="st0" d="M419.4,163.5v26.8h7c0.4,0,0.8-0.3,0.8-0.8V162h-6.2C420.1,162,419.4,162.7,419.4,163.5L419.4,163.5z"/>
<path class="st0" d="M337.6,148.4c-11.7,0-21.3,9.5-21.3,21.3s9.5,21.3,21.3,21.3s21.3-9.5,21.3-21.3S349.4,148.4,337.6,148.4
	L337.6,148.4z M337.6,183.1c-7.5,0-13.5-6-13.5-13.5c0-7.5,6-13.5,13.5-13.5c7.5,0,13.5,6,13.5,13.5l0,0
	C351.1,177.1,345.1,183.1,337.6,183.1L337.6,183.1z"/>
<path class="st0" d="M371.3,156.4L371.3,156.4c1.8,0.1,3.5-0.9,4.4-2.5l2.9-5h-8.9c-4.1,0-7.4,3.3-7.4,7.4c0,0,0,0,0,0v34.5
	c4.3,0,7.8-3.5,7.8-7.8v-14.2l0,0c1.7,0.1,3.2-0.8,4-2.3l2.7-4.6h-4c-0.9,0-1.8,0.1-2.7,0.4v-4.6C370.1,157,370.6,156.5,371.3,156.4
	C371.3,156.4,371.3,156.4,371.3,156.4z"/>
<path class="st0" d="M206.8,161.4c-7.7-0.2-14.3,5.5-15.1,13.2c-0.6,8.3,5.6,15.6,13.9,16.3c4.7,0.4,9.4-1.5,12.5-5.1l-4.2-2.4
	c-1.2-0.7-2.6-0.7-3.7-0.1c-1.1,0.6-2.3,0.8-3.6,0.8c-4.1,0-6.6-2-7.5-5.2h20.3c0.9,0,1.6-0.7,1.6-1.6l0,0v-1.3
	C220.9,168.1,215.2,161.7,206.8,161.4z M199.4,172.7c1.2-2.8,4-4.6,7-4.5c3.3,0,5.7,1.5,6.7,4.5H199.4z"/>
</svg>
